<svg xmlns="http://www.w3.org/2000/svg" width="1000" height="200" viewBox="0 0 1000 200">
  <defs>
    <linearGradient id="gradBlue" x1="0%" y1="0%" x2="100%" y2="100%">
      <stop offset="0%" stop-color="#5BC6FF"/>
      <stop offset="100%" stop-color="#1E3CFF"/>
    </linearGradient>
  </defs>

  <rect width="700" height="200" fill="white"/>

  <!-- Symbol (scaled & positioned) -->
  <g transform="translate(60,40) scale(2)">
    <svg fill="none" height="48" viewBox="0 0 48 48" width="48"
      xmlns="http://www.w3.org/2000/svg">
      <defs>
        <linearGradient id="d" gradientUnits="userSpaceOnUse" x1="24" x2="24" y1="9" y2="39">
          <stop offset="0" stop-color="#fff" stop-opacity=".8"/>
          <stop offset="1" stop-color="#fff" stop-opacity=".5"/>
        </linearGradient>
        <clipPath id="f"><rect height="48" rx="12" width="48"/></clipPath>
      </defs>
      <g clip-path="url(#f)">
        <rect fill="rgb(37 99 235)" height="48" rx="12" width="48"/>
        <path d="m17.0841 10.6363 3.5176 13.1277v-14.4329c.2789-.0651.5608-.1224.8455-.1717v14.606l3.9563-14.7654c.2851.0258.568.0596.8482.1011l-3.9882 14.8843 7.9276-13.731c.2582.1162.5126.2395.7629.3696l-7.9571 13.7822 11.3598-11.3599c.2048.1937.4042.3931.5978.5979l-11.3615 11.3615 13.7838-7.9581c.1301.2503.2533.5047.3695.763l-13.7276 7.9256 14.8803-3.9871c.0414.2803.0752.5631.101.8482l-14.7651 3.9563h14.6055c-.0493.2847-.1067.5666-.1718.8455h-14.436l13.1303 3.5183c-.1349.2582-.277.512-.4262.7611l-12.9192-3.4617 10.7905 6.2299c-.2042.2101-.4146.4142-.6308.6121l-10.5815-6.1093 8.0069 8.0069c-.2533.148-.5113.2888-.7737.4221l-7.8319-7.832 5.1315 8.8882c-.2809.0794-.5652.1509-.8526.2141l-5.0119-8.6808 2.4165 9.0182c-.2154.0092-.432.0138-.6496.0138-.0743 0-.1485-.0005-.2225-.0016l-2.3612-8.8123v8.5927c-.2847-.0493-.5666-.1067-.8455-.1717v-8.4196l-2.082 7.77c-.2655-.1047-.5274-.2167-.7853-.3359l2.0503-7.6518-3.8488 6.6664c-.2383-.1526-.472-.3117-.7008-.4772l3.8185-6.6139-5.3476 5.3476c-.2048-.1936-.4042-.393-.5979-.5978l5.346-5.3459-6.612 3.8174c-.1655-.2288-.3246-.4625-.4773-.7007l6.6695-3.8506-7.6556 2.0513c-.1191-.2579-.2312-.5198-.3359-.7853l7.77-2.082h-8.4197c-.0651-.2789-.1224-.5608-.1718-.8455h8.5891l-8.8089-2.3603c-.0011-.0746-.0016-.1494-.0016-.2242 0-.2171.0046-.4331.0137-.6479l9.0194 2.4167-8.6822-5.0126c.0632-.2874.1347-.5717.2141-.8527l8.8917 5.1337-7.8352-7.8353c.1333-.2624.2741-.5204.4221-.7736l8.0101 8.0102-6.1117-10.5858c.1979-.2162.4021-.4265.6122-.6308l6.231 10.7925-3.4622-12.9212c.2491-.1491.5029-.2912.7611-.426z"
          fill="url(#d)"/>
      </g>
    </svg>
  </g>

  <!-- Text -->
  <text x="170" y="130"
        font-family="Poppins, Arial, sans-serif"
        font-size="96"
        font-weight="700"
        fill="#222">
    Truck<tspan fill="url(#gradBlue)">Link</tspan>
  </text>
</svg>
